# xmcd CD database file
#
# Track frame offsets:
#	150
#	36037
#	68287
#	100085
#	130535
#	159855
#	194767
#
# Disc length: 2937 seconds
#
# Revision: 0
# Processed by: cddbd v1.4PL0 Copyright (c) Steve Scherf et al.
# Submitted via: CDex 1.51
#
DISCID=4c0b7707
DTITLE=Toshiko Akiyoshi - Dig
DYEAR=1900
DGENRE=Jazz
TTITLE0=dig
TTITLE1=lament
TTITLE2=lazy bird
TTITLE3=haliquin tears
TTITLE4=uptown stroll
TTITLE5=morning of the carnival
TTITLE6=la mucura
EXTD=
EXTT0=
EXTT1=
EXTT2=
EXTT3=
EXTT4=
EXTT5=
EXTT6=
PLAYORDER=
